# xmcd
#
# Track frame offsets:
#        150
#        19671
#        36481
#        53749
#
# Disc length: 974 seconds
#
# Revision: 0
# Processed by: cddbd v1.5PL3 Copyright (c) Steve Scherf et al.
# Submitted via: ExactAudioCopy v0.95a4
#
DISCID=2c03cc04
DTITLE=Breeze - Looking for my true love
DYEAR=2003
DGENRE=New Age
TTITLE0=Looking for my true love
TTITLE1=Show time!!
TTITLE2=TEMPTATION DRIVE
TTITLE3=Looking for my true love (instrumental)
EXTD=
EXTT0=
EXTT1=
EXTT2=
EXTT3=
PLAYORDER=
